<svg xmlns="http://www.w3.org/2000/svg" viewBox="0 0 512 512">
  <defs>
    <linearGradient id="favicon-bg" x1="76" x2="436" y1="58" y2="454" gradientUnits="userSpaceOnUse">
      <stop offset="0" stop-color="#13264c" />
      <stop offset="1" stop-color="#3158e8" />
    </linearGradient>
    <linearGradient id="favicon-glow" x1="122" x2="390" y1="92" y2="424" gradientUnits="userSpaceOnUse">
      <stop offset="0" stop-color="#ffffff" stop-opacity=".28" />
      <stop offset="1" stop-color="#ffffff" stop-opacity="0" />
    </linearGradient>
  </defs>
  <rect width="432" height="432" x="40" y="40" fill="url(#favicon-bg)" rx="108" />
  <rect width="432" height="432" x="40" y="40" fill="url(#favicon-glow)" rx="108" />
  <g transform="translate(0 2)">
    <rect width="118" height="198" x="124" y="136" fill="#ffffff" rx="28" transform="rotate(-7 183 235)" />
    <rect width="118" height="198" x="270" y="136" fill="#ffffff" rx="28" transform="rotate(7 329 235)" />
    <rect width="24" height="236" x="244" y="120" fill="#dce6ff" rx="12" />
    <path
      fill="#f7b63b"
      d="M332 120h36c10 0 18 8 18 18v90l-36-22-36 22v-90c0-10 8-18 18-18Z"
    />
    <rect width="216" height="28" x="148" y="352" fill="#f7b63b" rx="14" />
  </g>
</svg>
